Coordinates
version=1
nRows=17
nColumns=40
inDegrees=yes

Units are S.I. units (second, meters, Newtons, ...)
If the header above contains a line with 'inDegrees', this indicates whether rotational values are in degrees (yes) or radians (no).

endheader
time	pelvis_tilt	pelvis_list	pelvis_rotation	pelvis_tx	pelvis_ty	pelvis_tz	hip_flexion_r	hip_adduction_r	hip_rotation_r	knee_angle_r	knee_angle_r_beta	ankle_angle_r	subtalar_angle_r	mtp_angle_r	hip_flexion_l	hip_adduction_l	hip_rotation_l	knee_angle_l	knee_angle_l_beta	ankle_angle_l	subtalar_angle_l	mtp_angle_l	lumbar_extension	lumbar_bending	lumbar_rotation	arm_flex_r	arm_add_r	arm_rot_r	elbow_flex_r	pro_sup_r	wrist_flex_r	wrist_dev_r	arm_flex_l	arm_add_l	arm_rot_l	elbow_flex_l	pro_sup_l	wrist_flex_l	wrist_dev_l
      1.20500000	     -8.79497517	     -3.50675962	     -0.74938575	      0.17124569	      0.45625178	     -1.20878656	     88.74157058	    -48.96066945	     10.81947794	    122.62034410	      2.14012873	     36.36702350	     12.71449760	      0.00000000	    103.64267314	    -49.56004952	     26.22258604	    122.33144136	      2.13508643	     32.39261430	     24.50894288	      0.00000000	    -18.49339586	      2.61525455	     -1.96125389	     44.99992206	    -15.00000000	     44.99992206	     75.00017585	     45.00000026	      0.00000000	      0.00000000	     44.99992206	    -15.00000000	     44.99992206	     75.00017585	     45.00000026	      0.00000000	      0.00000000
      1.21000000	     -8.71170738	     -3.52662600	     -0.79172260	      0.17145418	      0.45452601	     -1.20884937	     88.95591423	    -48.98141058	     11.11725249	    122.85970776	      2.14430642	     36.47944521	     12.89309270	      0.00000000	    103.91030000	    -49.56146086	     26.61213957	    122.59818015	      2.13974190	     32.49768826	     24.55446588	      0.00000000	    -18.60873169	      2.63205439	     -1.92042754	     44.99992221	    -15.00000000	     44.99992221	     75.00017585	     45.00000026	      0.00000000	      0.00000000	     44.99992221	    -15.00000000	     44.99992221	     75.00017585	     45.00000026	      0.00000000	      0.00000000
      1.21500000	     -8.41171235	     -3.48308255	     -0.79771514	      0.17160739	      0.45339562	     -1.20890742	     88.95100319	    -49.04119856	     11.47387947	    123.06698604	      2.14792411	     36.58409698	     13.11646552	      0.00000000	    103.73090614	    -49.56978439	     26.81278064	    122.80765237	      2.14339788	     32.66828295	     24.72952039	      0.00000000	    -18.99619500	      2.59503058	     -1.89730238	     44.99992235	    -15.00000000	     44.99992235	     75.00017585	     45.00000026	      0.00000000	      0.00000000	     44.99992235	    -15.00000000	     44.99992235	     75.00017585	     45.00000026	      0.00000000	      0.00000000
      1.22000000	     -8.31333199	     -3.48624930	     -0.84992769	      0.17179091	      0.45175966	     -1.20890163	     89.16879218	    -49.05587413	     11.76341498	    123.30576326	      2.15209156	     36.66754705	     13.21971954	      0.00000000	    103.94338075	    -49.57994597	     27.17405122	    123.04834740	      2.14759880	     32.77943667	     24.76643047	      0.00000000	    -19.13768232	      2.55386442	     -1.84233605	     44.99992249	    -15.00000000	     44.99992249	     75.00017585	     45.00000026	      0.00000000	      0.00000000	     44.99992249	    -15.00000000	     44.99992249	     75.00017585	     45.00000026	      0.00000000	      0.00000000
      1.22500000	     -8.17928361	     -3.53300683	     -0.89732735	      0.17201278	      0.45010789	     -1.20897670	     89.28132095	    -49.05624425	     12.03003115	    123.53320632	      2.15606119	     36.73558774	     13.39481266	      0.00000000	    104.17900306	    -49.57713415	     27.63736269	    123.31743059	      2.15229519	     32.92950168	     24.91746483	      0.00000000	    -19.29395107	      2.59907638	     -1.79830415	     44.99992262	    -15.00000000	     44.99992262	     75.00017585	     45.00000026	      0.00000000	      0.00000000	     44.99992262	    -15.00000000	     44.99992262	     75.00017585	     45.00000026	      0.00000000	      0.00000000
      1.23000000	     -8.22964706	     -3.59646809	     -0.96920753	      0.17225356	      0.44796699	     -1.20902492	     89.64507852	    -49.02480972	     12.30451734	    123.80382992	      2.16078446	     36.80952394	     13.43187496	      0.00000000	    104.74930197	    -49.56440646	     28.19314212	    123.62411021	      2.15764776	     32.97209481	     24.90222248	      0.00000000	    -19.20775785	      2.66889717	     -1.71662378	     44.99992273	    -15.00000000	     44.99992273	     75.00017585	     45.00000026	      0.00000000	      0.00000000	     44.99992273	    -15.00000000	     44.99992273	     75.00017585	     45.00000026	      0.00000000	      0.00000000
      1.23500000	     -8.05768789	     -3.52259656	     -0.99620771	      0.17243414	      0.44651110	     -1.20899531	     89.87495854	    -49.06004231	     12.74383065	    124.03617786	      2.16483970	     36.91324864	     13.60416346	      0.00000000	    104.71978863	    -49.57240590	     28.38088565	    123.84713575	      2.16154029	     33.09354193	     24.99544860	      0.00000000	    -19.42711453	      2.58828381	     -1.65222609	     44.99992284	    -15.00000000	     44.99992284	     75.00017585	     45.00000026	      0.00000000	      0.00000000	     44.99992284	    -15.00000000	     44.99992284	     75.00017585	     45.00000026	      0.00000000	      0.00000000
      1.24000000	     -8.04140106	     -3.51872877	     -1.05955212	      0.17265329	      0.44458882	     -1.20898868	     90.24668533	    -49.03801745	     13.11280371	    124.29530079	      2.16936224	     36.90222735	     13.60114311	      0.00000000	    105.04764325	    -49.56937797	     28.78381937	    124.11984490	      2.16629996	     33.25102470	     25.08300514	      0.00000000	    -19.42559009	      2.58089313	     -1.58016211	     44.99992295	    -14.99999999	     44.99992295	     75.00017585	     45.00000026	      0.00000000	      0.00000000	     44.99992295	    -14.99999999	     44.99992295	     75.00017585	     45.00000026	      0.00000000	      0.00000000
      1.24500000	     -7.88601287	     -3.53039571	     -1.09471951	      0.17286147	      0.44307747	     -1.20902113	     90.36210246	    -49.06144838	     13.39999791	    124.51777961	      2.17324523	     37.02307019	     13.78829698	      0.00000000	    105.18094178	    -49.56875259	     29.13926302	    124.35730970	      2.17044450	     33.35145620	     25.13309371	      0.00000000	    -19.60906323	      2.58204811	     -1.52918991	     44.99992305	    -14.99999999	     44.99992305	     75.00017585	     45.00000026	      0.00000000	      0.00000000	     44.99992305	    -14.99999999	     44.99992305	     75.00017585	     45.00000026	      0.00000000	      0.00000000
      1.25000000	     -7.73567802	     -3.55558739	     -1.13738660	      0.17307331	      0.44155330	     -1.20903042	     90.48197251	    -49.07594544	     13.65793941	    124.74604564	      2.17722923	     37.09415561	     13.88981512	      0.00000000	    105.34519795	    -49.56845509	     29.54390281	    124.59072017	      2.17451828	     33.48699808	     25.24031287	      0.00000000	    -19.78831650	      2.57683969	     -1.46548802	     44.99992314	    -14.99999999	     44.99992314	     75.00017585	     45.00000026	      0.00000000	      0.00000000	     44.99992314	    -14.99999999	     44.99992314	     75.00017585	     45.00000026	      0.00000000	      0.00000000
      1.25500000	     -7.60842143	     -3.55811929	     -1.18123994	      0.17328915	      0.43998372	     -1.20907368	     90.65501456	    -49.07897101	     13.97300369	    124.96924799	      2.18112484	     37.16656333	     13.99660667	      0.00000000	    105.51350601	    -49.56841886	     29.89079557	    124.84389675	      2.17893705	     33.60038758	     25.29991837	      0.00000000	    -19.92478878	      2.58752024	     -1.39074647	     44.99992322	    -14.99999999	     44.99992322	     75.00017585	     45.00000026	      0.00000000	      0.00000000	     44.99992322	    -14.99999999	     44.99992322	     75.00017585	     45.00000026	      0.00000000	      0.00000000
      1.26000000	     -7.34734172	     -3.53950327	     -1.20054671	      0.17346901	      0.43877989	     -1.20910830	     90.66874800	    -49.11864274	     14.28575008	    125.16641533	      2.18456606	     37.25523337	     14.17992650	      0.00000000	    105.43114563	    -49.57774676	     30.15647781	    125.05767673	      2.18266821	     33.73700726	     25.45487089	      0.00000000	    -20.23729779	      2.55977827	     -1.33625858	     44.99992330	    -14.99999999	     44.99992330	     75.00017585	     45.00000026	      0.00000000	      0.00000000	     44.99992330	    -14.99999999	     44.99992330	     75.00017585	     45.00000026	      0.00000000	      0.00000000
      1.26500000	     -7.14560550	     -3.52965428	     -1.22912629	      0.17365904	      0.43745967	     -1.20913925	     90.75141612	    -49.14289657	     14.58845619	    125.37474764	      2.18820215	     37.32906572	     14.30713676	      0.00000000	    105.44704654	    -49.58160679	     30.44534756	    125.27703556	      2.18649675	     33.87583650	     25.56874770	      0.00000000	    -20.47877943	      2.53159310	     -1.28789053	     44.99992338	    -14.99999999	     44.99992338	     75.00017585	     45.00000026	      0.00000000	      0.00000000	     44.99992338	    -14.99999999	     44.99992338	     75.00017585	     45.00000026	      0.00000000	      0.00000000
      1.27000000	     -7.17862521	     -3.47731524	     -1.29850099	      0.17390020	      0.43539958	     -1.20903004	     91.26971425	    -49.10080238	     15.07373000	    125.65661093	      2.19312159	     37.35326097	     14.32763662	      0.00000000	    105.78166563	    -49.57405560	     30.77697409	    125.54672960	      2.19120380	     33.98695719	     25.50149961	      0.00000000	    -20.39286834	      2.46677698	     -1.20293124	     44.99992344	    -14.99999999	     44.99992344	     75.00017585	     45.00000026	      0.00000000	      0.00000000	     44.99992344	    -14.99999999	     44.99992344	     75.00017585	     45.00000026	      0.00000000	      0.00000000
      1.27500000	     -6.95732661	     -3.51836864	     -1.33199009	      0.17409537	      0.43411111	     -1.20909001	     91.24053657	    -49.11940192	     15.27990442	    125.85205546	      2.19653274	     37.45886898	     14.46697014	      0.00000000	    105.85751358	    -49.57443684	     31.16995848	    125.77002005	      2.19510095	     34.08106817	     25.61456127	      0.00000000	    -20.65141178	      2.49280907	     -1.13529319	     44.99992351	    -14.99999999	     44.99992351	     75.00017585	     45.00000026	      0.00000000	      0.00000000	     44.99992351	    -14.99999999	     44.99992351	     75.00017585	     45.00000026	      0.00000000	      0.00000000
      1.28000000	     -6.84900871	     -3.51111314	     -1.37868244	      0.17431874	      0.43251320	     -1.20907233	     91.46541958	    -49.11270460	     15.61691790	    126.08676298	      2.20062916	     37.49050255	     14.53987072	      0.00000000	    106.02341643	    -49.57182506	     31.50820160	    126.00743465	      2.19924462	     34.22609994	     25.65677104	      0.00000000	    -20.75247764	      2.49050014	     -1.03353146	     44.99992357	    -14.99999999	     44.99992357	     75.00017585	     45.00000026	      0.00000000	      0.00000000	     44.99992357	    -14.99999999	     44.99992357	     75.00017585	     45.00000026	      0.00000000	      0.00000000
      1.28500000	     -6.67152605	     -3.49324665	     -1.41088646	      0.17450798	      0.43113000	     -1.20906929	     91.59316533	    -49.12786175	     15.94776511	    126.29688702	      2.20429651	     37.57424055	     14.69232546	      0.00000000	    106.07010448	    -49.57263425	     31.79639005	    126.22582194	      2.20305619	     34.32318542	     25.71088775	      0.00000000	    -20.94975338	      2.45979322	     -0.96762962	     44.99992363	    -14.99999999	     44.99992363	     75.00017585	     45.00000026	      0.00000000	      0.00000000	     44.99992363	    -14.99999999	     44.99992363	     75.00017585	     45.00000026	      0.00000000	      0.00000000
